<svg width="1728" height="1117" viewBox="0 0 1728 1117" fill="none" xmlns="http://www.w3.org/2000/svg">
<g clip-path="url(#clip0_2940_49)">
<path d="M1728 0H1052L755 1118H1728V0Z" fill="#013453"/>
<path d="M1540 92C1564.3 92 1584 111.699 1584 136V980C1584 1004.3 1564.3 1024 1540 1024H200C175.699 1024 156 1004.3 156 980V136C156 111.699 175.699 92 200 92H1540ZM213.767 118C197.198 118 183.767 131.431 183.767 148V968C183.767 984.569 197.198 998 213.767 998H697.48C712.294 998 724.891 987.188 727.135 972.545L852.806 152.545C855.59 134.378 841.532 118 823.152 118H213.767Z" fill="#203B7E"/>
</g>
<defs>
<clipPath id="clip0_2940_49">
<rect width="1728" height="1117" fill="white"/>
</clipPath>
</defs>
</svg>
