<svg width="40" height="40" viewBox="0 0 40 40" fill="none" xmlns="http://www.w3.org/2000/svg">
<path d="M39.611 16.083H38V16H20V24H31.303C29.654 28.657 25.223 32 20 32C13.373 32 8 26.627 8 20C8 13.373 13.373 8 20 8C23.059 8 25.842 9.154 27.961 11.039L33.618 5.382C30.046 2.053 25.268 0 20 0C8.955 0 0 8.955 0 20C0 31.045 8.955 40 20 40C31.045 40 40 31.045 40 20C40 18.659 39.862 17.35 39.611 16.083Z" fill="#FFC107"/>
<path d="M2.14286 10.8318L8.73832 15.7143C10.5229 11.2543 14.845 8.10537 19.9027 8.10537C22.9731 8.10537 25.7665 9.27457 27.8934 11.1844L33.5714 5.45289C29.9861 2.08004 25.1903 0 19.9027 0C12.1921 0 5.50533 4.39412 2.14286 10.8318Z" fill="#FF3D00"/>
<path d="M20.0703 40.0001C25.2718 40.0001 29.998 38.0518 33.5714 34.8835L27.3389 29.7216C25.2495 31.2777 22.6958 32.1191 20.0703 32.1163C14.8325 32.1163 10.3851 28.8475 8.70969 24.2858L2.14286 29.2377C5.47561 35.6206 12.2438 40.0001 20.0703 40.0001Z" fill="#4CAF50"/>
<path d="M39.611 15.7993H38V15.7142H20V23.9086H31.303C30.5142 26.1789 29.0934 28.1627 27.216 29.615L27.219 29.6129L33.409 34.9782C32.971 35.3859 40 30.0544 40 19.8114C40 18.4378 39.862 17.097 39.611 15.7993Z" fill="#1976D2"/>
</svg>
